{"title":"X-Men Apocalypse 2016 720p +20-subs BRRip x264-TheRival","uid":15821502,"size":2575110478,"categoryP":"video","categoryS":"hd___movies","magnet":"?xt=urn:btih:013cef892ac12fb5fb24f171d1a0fe1c598b545b&amp;dn=X-Men+Apocalypse+2016+720p+%2B20-subs+BRRip+x264-TheRival&amp;tr=udp%3A%2F%2Ftracker.leechers-paradise.org%3A6969&amp;tr=udp%3A%2F%2Fzer0day.ch%3A1337&amp;tr=udp%3A%2F%2Fopen.demonii.com%3A1337&amp;tr=udp%3A%2F%2Ftracker.coppersurfer.tk%3A6969&amp;tr=udp%3A%2F%2Fexodus.desync.com%3A6969","seeders":5,"leechers":14,"uploader":"TheRival","files":4,"time":1473772757,"description":"Screenshots: \nhttp://extraimago.com/image/wI1G \nhttp://extraimago.com/image/wI1P \nhttp://extraimago.com/image/wI1X\r\n\r\nSubtitles:\r\nEnglish, German, Japanese, Japanese, Arabic, Bulgarian, Croatian, Czech, Modern Greek, Hebrew, Hungarian, Icelandic, Polish, Portuguese, Romanian, Serbian, Slovak, Slovenian, Turkish\r\n\r\nVideo\r\nID : 1\r\nFormat : AVC\r\nFormat/Info : Advanced Video Codec\r\nFormat profile :   \r\nFormat settings, CABAC : Yes\r\nFormat settings, ReFrames : 4 frames\r\nCodec ID : avc1\r\nCodec ID/Info : Advanced Video Coding\r\nDuration : 2 h 23 min\r\nBit rate : 2 126 kb/s\r\nWidth : 1 280 pixels\r\nHeight : 720 pixels\r\nDisplay aspect ratio : 16:9\r\nFrame rate mode : Constant\r\nFrame rate : 23.976 (24000/1001) FPS\r\nColor space : YUV\r\nChroma subsampling : 4:2:0\r\nBit depth : 8 bits\r\nScan type : Progressive\r\nBits/(Pixel*Frame) : 0.096\r\nStream size : 2.14 GiB (94%)\r\nWriting library : x264 core 146\r\nEncoding settings : cabac=1 / ref=1 / deblock=1:0:0 / analyse=0x3:0x3 / me=dia / subme=1 / psy=1 / psy_rd=1.00:0.00 / mixed_ref=0 / me_range=16 / chroma_me=1 / trellis=0 / 8x8dct=1 / cqm=0 / deadzone=21,11 / fast_pskip=1 / chroma_qp_offset=0 / threads=6 / lookahead_threads=1 / sliced_threads=0 / nr=0 / decimate=1 / interlaced=0 / bluray_compat=0 / constrained_intra=0 / bframes=3 / b_pyramid=2 / b_adapt=1 / b_bias=0 / direct=1 / weightb=1 / open_gop=0 / weightp=1 / keyint=250 / keyint_min=23 / scenecut=40 / intra_refresh=0 / rc=crf / mbtree=0 / crf=23.0 / qcomp=0.60 / qpmin=0 / qpmax=69 / qpstep=4 / ip_ratio=1.40 / pb_ratio=1.30 / aq=1:1.00\r\n\r\nAudio\r\nID : 2\r\nFormat : AAC\r\nFormat/Info : Advanced Audio Codec\r\nFormat profile : LC\r\nCodec ID : 40\r\nDuration : 2 h 23 min\r\nDuration_LastFrame : -11 ms\r\nBit rate mode : Constant\r\nBit rate : 128 kb/s\r\nChannel(s) : 2 channels\r\nChannel positions : Front: L R\r\nSampling rate : 48.0 kHz\r\nFrame rate : 46.875 FPS (1024 spf)\r\nCompression mode : Lossy\r\nStream size : 132 MiB (6%)\r\nDefault : Yes\r\nAlternate group : 1","torrent":{"xt":"urn:btih:013cef892ac12fb5fb24f171d1a0fe1c598b545b","amp;dn":"X-Men+Apocalypse+2016+720p+%2B20-subs+BRRip+x264-TheRival","amp;tr":["udp%3A%2F%2Ftracker.leechers-paradise.org%3A6969","udp%3A%2F%2Fzer0day.ch%3A1337","udp%3A%2F%2Fopen.demonii.com%3A1337","udp%3A%2F%2Ftracker.coppersurfer.tk%3A6969","udp%3A%2F%2Fexodus.desync.com%3A6969"],"infoHash":"013cef892ac12fb5fb24f171d1a0fe1c598b545b","infoHashBuffer":{"type":"Buffer","data":[1,60,239,137,42,193,47,181,251,36,241,113,209,160,254,28,89,139,84,91]},"announce":[],"urlList":[]}}